<svg xmlns="http://www.w3.org/2000/svg" viewBox="0 0 64.07 61.77">
  <defs>
    <style>.cls-1{fill:#3292bc;}.cls-2{fill:#fff;}</style>
  </defs>
  <title>newAddGear</title>
  <g id="Layer_2" data-name="Layer 2">
    <g id="Layer_1-2" data-name="Layer 1">
      <path class="cls-1" d="M63.72,31.36l-.13-.05a7.92,7.92,0,0,1-2.72-1.55,11.75,11.75,0,0,1-3-4.7c-.45-1.15-.93-2.32-1.4-3.46-.55-1.35-1.12-2.75-1.67-4.15a17.73,17.73,0,0,1-.95-3.24,7.61,7.61,0,0,1,.84-5.39.09.09,0,0,0,0-.05,2.08,2.08,0,0,0-.79-1.34C52.44,6.2,50.92,5.06,49.63,4.1a2.79,2.79,0,0,0-.85-.35,6.64,6.64,0,0,0-.65-.15,7.42,7.42,0,0,1-6,2.1,20.89,20.89,0,0,1-2.54-.38c-.52-.1-1-.2-1.46-.26l-2.95-.34c-1.45-.16-2.94-.33-4.43-.55-3-.46-5.06-1.77-6.28-4h0a3,3,0,0,0-2.3.14c-1.34.46-2.67,1-3.67,1.43a3.69,3.69,0,0,0-1.71,1.32l-.1.18a5.66,5.66,0,0,1,.26,2,11.25,11.25,0,0,1-2.88,6.62C12.51,13.8,11,15.73,9.54,17.59L9,18.31a10.67,10.67,0,0,1-3.63,3A9.54,9.54,0,0,1,2,22.11l-.35.05,0,0a7,7,0,0,0-.54.72A52.34,52.34,0,0,0,0,28.5a5.32,5.32,0,0,0,.23,1.57c.08.33.13.34.31.4a7.8,7.8,0,0,1,2.82,1.6A11.63,11.63,0,0,1,6.46,37c.44,1.2.91,2.43,1.36,3.61s1,2.6,1.47,3.92a18.44,18.44,0,0,1,.85,3,7.68,7.68,0,0,1-.78,5.35,3.33,3.33,0,0,0,.46,1,17.2,17.2,0,0,0,5.07,4,1.65,1.65,0,0,0,.44.16,1.82,1.82,0,0,0,.59.08L16,58a6.1,6.1,0,0,1,3-1.58,12.23,12.23,0,0,1,5.34.16c1.52.3,3.11.55,4.64.79.86.13,1.75.27,2.62.42l.88.14a17.59,17.59,0,0,1,3.32.72,7,7,0,0,1,3.41,2.68,1,1,0,0,0,.4.4l.34,0a10.37,10.37,0,0,0,1.64-.27,24.81,24.81,0,0,0,3.95-1.56,7.62,7.62,0,0,0,1.75-1.35,5.75,5.75,0,0,1-.11-2.33A11.57,11.57,0,0,1,50,50.63l2-2.58c1-1.26,2-2.56,3-3.83l.09-.1a25.57,25.57,0,0,1,3.2-3.1,6.55,6.55,0,0,1,4.13-1.39l.08,0a3.08,3.08,0,0,0,.64-1,15.19,15.19,0,0,0,.9-5.19A7.24,7.24,0,0,0,63.72,31.36ZM52,33.93A20.22,20.22,0,1,1,35,11,20.29,20.29,0,0,1,52,33.93Z"/>
      <circle class="cls-1" cx="32.04" cy="30.95" r="17.06"/>
      <path class="cls-2" d="M44,28.88H34v-10a2,2,0,0,0-4,0v10H20a2,2,0,1,0,0,4H30v10a2,2,0,0,0,4,0v-10H44a2,2,0,1,0,0-4Z"/>
    </g>
  </g>
</svg>