<svg xmlns="http://www.w3.org/2000/svg" xmlns:xlink="http://www.w3.org/1999/xlink" id="Layer_1" style="enable-background:new 0 0 128 128;" height="175px" version="1.1" viewBox="0 0 128 128" xml:space="preserve">
  <style type="text/css">
	.st0{fill:#007BBF;}
	.st1{fill:#2D3E50;}
</style>
  <g>
    <path class="st0" d="M25.9,68.7h18.2c0.8,0,1.4-0.6,1.4-1.4V49.1c0-0.8-0.6-1.4-1.4-1.4H25.9c-0.8,0-1.4,0.6-1.4,1.4v18.2   C24.4,68.1,25.1,68.7,25.9,68.7z"/>
    <path class="st0" d="M54.9,68.7h18.2c0.8,0,1.4-0.6,1.4-1.4V49.1c0-0.8-0.6-1.4-1.4-1.4H54.9c-0.8,0-1.5,0.6-1.5,1.4v18.2   C53.4,68.1,54.1,68.7,54.9,68.7z M57.6,57.4c0.7-0.6,1.7-0.6,2.3,0.1l2,2.1l6.1-6.1c0.7-0.6,1.7-0.6,2.3,0s0.6,1.7,0,2.3l-6.8,6.8   c-0.4,0.4-1,0.7-1.6,0.7h0c-0.6,0-1.2-0.3-1.6-0.7l-2.7-2.9C57,59.1,57,58,57.6,57.4z"/>
    <path class="st0" d="M83.9,68.7h18.2c0.8,0,1.4-0.6,1.4-1.4V49.1c0-0.8-0.6-1.4-1.4-1.4H83.9c-0.8,0-1.4,0.6-1.4,1.4v18.2   C82.5,68.1,83.1,68.7,83.9,68.7z"/>
    <path class="st0" d="M83.9,97.7h18.2c0.8,0,1.4-0.6,1.4-1.4V78.1c0-0.8-0.6-1.4-1.4-1.4H83.9c-0.8,0-1.4,0.6-1.4,1.4v18.2   C82.5,97.1,83.1,97.7,83.9,97.7z"/>
    <path class="st0" d="M25.9,97.7h18.2c0.8,0,1.4-0.6,1.4-1.4V78.1c0-0.8-0.6-1.4-1.4-1.4H25.9c-0.8,0-1.5,0.6-1.5,1.4v18.2   C24.4,97.1,25.1,97.7,25.9,97.7z M28.6,86.4c0.7-0.6,1.7-0.6,2.3,0.1l2,2.1l6.1-6.1c0.7-0.6,1.7-0.6,2.3,0s0.6,1.7,0,2.3l-6.8,6.8   c-0.4,0.4-1,0.7-1.6,0.7h0c-0.6,0-1.2-0.3-1.6-0.7l-2.7-2.9C27.9,88.1,28,87,28.6,86.4z"/>
    <path class="st0" d="M73.1,76.6H54.9c-0.8,0-1.4,0.6-1.4,1.4v18.2c0,0.8,0.6,1.4,1.4,1.4h18.2c0.8,0,1.4-0.6,1.4-1.4V78.1   C74.6,77.3,73.9,76.6,73.1,76.6z"/>
    <path class="st1" d="M119.6,6.3h-24v4.5l0.3,0.2c1.3,0.8,2.2,2.2,2.4,3.8c0,0.1,0,0.3,0,0.5c0,2.9-2.3,5.2-5.2,5.2   c-2.9,0-5.2-2.3-5.2-5.2c0-0.2,0-0.4,0-0.6c0.2-1.5,1.1-2.9,2.4-3.7l0.3-0.2V6.3H37.2v4.5l0.3,0.2c1.3,0.8,2.2,2.2,2.4,3.8   c0,0.1,0,0.3,0,0.5c0,2.9-2.3,5.2-5.2,5.2c-2.9,0-5.2-2.3-5.2-5.2c0-0.2,0-0.4,0-0.6c0.2-1.5,1.1-2.9,2.4-3.7l0.3-0.2V6.3h-24   c-3.5,0-6.3,2.8-6.3,6.3v102.9c0,3.5,2.8,6.3,6.3,6.3h111.3c3.5,0,6.3-2.8,6.3-6.3V12.5C125.9,9.1,123.1,6.3,119.6,6.3z    M116.9,112.7H11.1v-80h105.7V112.7z"/>
  </g>
</svg>