<svg xmlns="http://www.w3.org/2000/svg" xmlns:xlink="http://www.w3.org/1999/xlink" enable-background="new 0 0 64 64" height="auto" id="Layer_1" version="1.1" viewBox="0 0 64 64" width="auto" xml:space="preserve">
  <g>
    <path class="path" d="M9.34,47.295c3.899-4.737,12.136-14.144,16.049-18.875l3.994-4.835l-2.191-1.99l-2.158-2.026l-4.501,4.367   C16.129,28.215,7.408,37.175,2.997,41.44c-1.111,1.072-1.702,2.477-1.669,3.948c0.056,2.474,1.757,4.027,4.208,3.887   C7.006,49.19,8.359,48.488,9.34,47.295z" fill="#3079BE"/>
    <path class="path" d="M49.317,19.811c-0.538-0.498-1.083-0.997-1.628-1.495c-0.607-0.557-1.214-1.12-1.814-1.677   c-0.207-0.194-0.41-0.268-0.691-0.259c-0.147,0.005-1.47,0.08-1.838,0.098l-0.114,0.004c-1.324,0.042-1.98-0.573-2.05-1.93   l-0.024-0.341c-0.023-0.301-0.039-0.595-0.035-0.896c0.007-0.395-0.143-0.698-0.502-1.042c-1.837-1.749-4.005-3.823-6.161-5.951   c-0.912-0.902-1.966-1.618-3.223-2.181c-2.779-1.264-5.435-1.642-8.125-1.168c-1.329,0.232-2.58,0.667-3.782,1.317   c-0.656,0.355-0.444,1.36,0.301,1.403c1.43,0.083,2.718,0.391,3.932,0.927c2.818,1.25,4.491,3.754,4.471,6.694   c-0.011,1.353-0.35,2.683-1.006,3.949c0.814,0.758,1.642,1.535,2.456,2.299c0.697,0.647,1.373,1.289,2.001,1.878   c0.785-0.782,0.968-0.935,1.119-1.033c0.945-0.592,2.04-0.694,2.944-0.274c0.292,0.138,0.58,0.336,0.849,0.589   c1.22,1.113,1.482,2.611,0.717,4.035c0.282,0.252,0.565,0.504,0.848,0.756c1.13,1.022,2.309,2.076,3.485,3.063   c0.172,0.142,0.315,0.224,0.409,0.221c0.047-0.001,0.193-0.033,0.48-0.27l5.589-5.962l1.473-1.68   C49.695,20.542,49.786,20.245,49.317,19.811z" fill="#3A4652"/>
    <path class="path" d="M32.366,37.171c2.185,0,4.371-0.002,6.556,0.001c1.309,0.001,2.099,0.778,2.103,2.078   c0.006,1.892,0.003,3.783-0.001,5.675c-0.003,1.361-0.772,2.126-2.167,2.13c-2.681,0.009-5.363,0.004-8.044,0.004   c-1.634,0-3.269,0.002-4.903-0.002c-1.539-0.004-2.289-0.763-2.291-2.311c-0.002-1.781-0.003-3.563-0.001-5.344   c0.001-1.459,0.781-2.23,2.247-2.23C28.032,37.171,30.199,37.171,32.366,37.171z" fill="#3A4652"/>
    <path class="path" d="M53.972,37.171c2.203,0,4.407-0.001,6.61,0.001c1.275,0.001,2.067,0.762,2.078,2.042   c0.017,1.928,0.016,3.856,0,5.784c-0.011,1.257-0.762,2.045-2.022,2.05c-4.443,0.02-8.887,0.019-13.331,0   c-1.26-0.005-2.013-0.795-2.023-2.049c-0.015-1.909-0.018-3.819-0.002-5.729c0.011-1.36,0.775-2.097,2.133-2.099   C49.602,37.169,51.787,37.171,53.972,37.171z" fill="#3A4652"/>
    <path class="path" d="M43.514,61.221c-2.167,0-4.333,0.003-6.5-0.001c-1.419-0.003-2.164-0.756-2.165-2.18   c-0.002-1.854-0.004-3.709,0.001-5.563c0.003-1.31,0.772-2.097,2.079-2.099c4.443-0.007,8.887-0.007,13.33,0   c1.192,0.002,1.994,0.812,2,2.013c0.01,1.928,0.008,3.856,0.001,5.784c-0.004,1.234-0.797,2.039-2.025,2.044   C47.994,61.228,45.754,61.221,43.514,61.221z" fill="#3A4652"/>
    <path class="path" d="M22.802,51.375c2.185,0,4.37-0.004,6.555,0.001c1.358,0.003,2.106,0.741,2.115,2.11   c0.013,1.873,0.011,3.746,0.003,5.618c-0.006,1.358-0.767,2.115-2.114,2.116c-4.37,0.003-8.74,0.004-13.109,0   c-1.433-0.001-2.163-0.736-2.165-2.168c-0.002-1.854-0.005-3.709,0.003-5.563c0.006-1.377,0.737-2.11,2.103-2.113   C18.396,51.371,20.599,51.375,22.802,51.375z" fill="#3A4652"/>
  </g>
</svg>