<svg xmlns="http://www.w3.org/2000/svg" viewBox="0 0 127.74 94.98">
  <defs>
    <style>.cls-1{fill:#3f4852;}.cls-1,.cls-2{fill-rule:evenodd;}.cls-2{fill:#1972cc;}</style>
  </defs>
  <title>Asset 4</title>
  <g id="Layer_2" data-name="Layer 2">
    <g id="Layer_1-2" data-name="Layer 1">
      <g id="_316899672" data-name=" 316899672">
        <path class="cls-1" d="M79.72,9.34,78.07,25.79C77.33,33.08,66.26,31.88,67,24.6L68.65,8.15C69.38.86,80.45,2.06,79.72,9.34ZM66.09,5.75l-.58,18.52c-.51-.62-1-2.72-3.72-3.23l-7.24-.23V5.75C54.55-2.3,66.33-1.53,66.09,5.75ZM76.86,74.81h4.78a4.69,4.69,0,0,1,4.68,4.68L86.3,95h-7V79.6C79.09,77.7,78.59,75.82,76.86,74.81ZM42.19,95V79.48a4.69,4.69,0,0,1,4.68-4.68H71.07a4.87,4.87,0,0,1,4.85,4.86V95ZM35.81,25.11s.42-4.17,6-2.92c3.79.84,12.92.76,18.08.79a3.52,3.52,0,0,1,2.88,5.25,9.36,9.36,0,0,1-3.63,3.47C54.81,33.85,46.91,34.37,46.94,34S57.7,36,60.57,44.3c1-1.95-.39-7.26-3.51-9.08,0,0,5.87-1.56,8.65-6.5,1.63,5.6,10.91,5.64,13.45.84.83,2.08,7.76,3.69,10-.28,1.39,5.14-1.6,24.44-7.72,29.58a12.1,12.1,0,0,0-1.88,5.78v6.14a2.35,2.35,0,0,1-2.38,2.38L52,72.12a4.78,4.78,0,0,1-4.77-4.62l.11-9.13L34.21,42.25C32.16,39.73,32.82,38.36,35.81,25.11ZM52.74,9.62V20.71l-6.89-.2c-3.5-.1-4.56-1.85-4.69-2.59V10.11C41.16,3.61,52.74,3.12,52.74,9.62ZM90,14.71,88.56,26.26c-.63,5-9.37,3.93-8.73-1.1l1.46-11.55C81.92,8.58,90.65,9.69,90,14.71Z"/>
        <path class="cls-2" d="M92.34,15.25h5.1l10-8.94h12.67l7.61,7.18H114l-5.4,8.92,5.4,8.92h13.72l-7.61,7.18H107.46l-10-8.94H92.17a9.45,9.45,0,0,0-.24-1.18l-.52-1.94Zm-62,0h9.05v2.94l0,.28.06.28c-2.74.35-4.23,1-5.26,2.1a7.13,7.13,0,0,0-1.76,3.66c-.38,1.67-.79,3.36-1.18,5.06H30.3l-10,8.94H7.6L0,31.33H13.72l5.4-8.92-5.4-8.92H0L7.6,6.31H20.28Z"/>
      </g>
    </g>
  </g>
</svg>