<svg xmlns="http://www.w3.org/2000/svg" xmlns:xlink="http://www.w3.org/1999/xlink" id="Layer_1" style="enable-background:new 0 0 128 128;" version="1.1" viewBox="0 0 128 128" xml:space="preserve">
  <style type="text/css">
	.st0{fill:white;}
	.st1{fill:white;}
</style>
  <g>
    <path class="st0" d="M10,10.9c-4.3,0-7.7,3.5-7.7,7.7v90.7c0,4.3,3.5,7.7,7.7,7.7h70.8c4.3,0,7.7-3.5,7.7-7.7v-70L60.1,10.9H10z    M81.9,109.4c0,0.6-0.5,1.1-1.1,1.1H10c-0.6,0-1.1-0.5-1.1-1.1V18.6c0-0.6,0.5-1.1,1.1-1.1h44.5v19.6c0,4.3,3.5,7.7,7.7,7.7h19.7   V109.4z M61.1,21.4L78,38.3H62.2c-0.6,0-1.1-0.5-1.1-1.1V21.4z"/>
    <path class="st1" d="M66.1,74.1H44c-1,0-1.7,0.8-1.7,1.7c0,1,0.8,1.7,1.7,1.7h22.1c1,0,1.7-0.8,1.7-1.7   C67.8,74.8,67.1,74.1,66.1,74.1z"/>
    <path class="st1" d="M66.1,93.1H44c-1,0-1.7,0.8-1.7,1.7c0,1,0.8,1.7,1.7,1.7h22.1c1,0,1.7-0.8,1.7-1.7   C67.8,93.9,67.1,93.1,66.1,93.1z"/>
    <path class="st1" d="M25.6,62.9c0.5,0.5,1.2,0.8,1.9,0.8c0.7,0,1.4-0.3,1.9-0.8l5.6-5.6c0.7-0.7,0.7-1.8,0-2.5   c-0.7-0.7-1.8-0.7-2.5,0l-5,5L25.6,58c-0.7-0.7-1.8-0.7-2.5,0c-0.7,0.7-0.7,1.8,0,2.5L25.6,62.9z"/>
    <path class="st1" d="M22.7,101.7h13.7V87.9H22.7V101.7z M26.2,91.4h6.8v6.8h-6.8V91.4z"/>
    <path class="st1" d="M42.3,59c0,1,0.8,1.7,1.7,1.7h22.1c1,0,1.7-0.8,1.7-1.7c0-1-0.8-1.7-1.7-1.7H44C43.1,57.3,42.3,58,42.3,59z"/>
    <path class="st1" d="M25.6,79.7c0.5,0.5,1.2,0.8,1.9,0.8c0.7,0,1.4-0.3,1.9-0.8l5.6-5.6c0.7-0.7,0.7-1.8,0-2.5   c-0.7-0.7-1.8-0.7-2.5,0l-5,5l-1.9-1.9c-0.7-0.7-1.8-0.7-2.5,0c-0.7,0.7-0.7,1.8,0,2.5L25.6,79.7z"/>
    <path class="st1" d="M119.6,12.3c-3.9-0.1-7.7-0.1-11.6-0.1c-3.6,0-6.3,2.9-6.4,7c0,2-0.1,4-0.1,6l0,1.6c0,0.1,0,0.3,0,0.5l-0.1,0   l1.8,0l0.5,0l19.9,0.2l2.1,0l0-2.4c0-1.9,0.1-3.7,0.1-5.6C125.8,15.4,123.2,12.4,119.6,12.3z"/>
    <path class="st1" d="M101.8,36.6L101.7,48c-0.1,14.2-0.1,28.3-0.2,42.5c0,1.1,0.2,2.3,0.5,3.3c1.7,5.1,3.4,10.2,5.1,15.3l1.2,3.6   c0.3,0.9,0.7,1.7,1.1,2.4c1.4,2.1,4,2.7,6,1.4c0.6-0.4,1.1-0.9,1.6-1.6c0.4-0.6,0.8-1.4,1.1-2.3l1.2-3.5c1.5-4.1,2.9-8.3,4.3-12.4   l0.2-0.6c0.6-1.8,1.4-4,1.4-6.5c0-7.5,0-15.1,0.1-22.6l0.1-32.5c0-0.2,0-0.4,0-0.5l0.1-2.1l-23.7-0.2L101.8,36.6z M109.6,91   c0.8,0.5,2.1,0.9,3.5,0.9c1.1,0,2.4-0.3,3.7-1c1,0.6,2.7,1.2,4.5,0.8c-0.2,1.1-0.6,2.1-0.9,3.2l-0.2,0.5c-1.1,3.2-2,6-3,8.6   c-1.5,0-2.9,0-4.3,0l-3.4,0c-1.3-3.8-2.6-7.6-3.8-11.5c-0.1-0.3-0.2-0.6-0.2-1C106.5,91.9,108,91.8,109.6,91z"/>
  </g>
</svg>