<svg xmlns="http://www.w3.org/2000/svg" xmlns:xlink="http://www.w3.org/1999/xlink" enable-background="new 0 0 64 64" height="175px" id="Layer_1" version="1.1" viewBox="0 0 64 64" width="175px" xml:space="preserve">
  <g>
    <path d="M16.219,58.276c4.553-6.056,14.205-18.113,18.775-24.163l4.666-6.183l-2.812-2.336l-2.773-2.382   l-5.316,5.634c-5.201,5.518-15.474,17.049-20.684,22.55c-1.312,1.384-1.966,3.148-1.845,4.962c0.203,3.049,2.387,4.874,5.404,4.567   C13.443,60.741,15.074,59.801,16.219,58.276z" fill="#3079BE"/>
    <path d="M63.177,22.771c-0.691-0.586-1.39-1.171-2.09-1.756c-0.779-0.654-1.559-1.316-2.33-1.97   c-0.266-0.228-0.521-0.309-0.867-0.282c-0.181,0.014-1.81,0.179-2.263,0.222l-0.14,0.011c-1.632,0.124-2.474-0.6-2.634-2.27   l-0.048-0.419c-0.045-0.37-0.08-0.732-0.092-1.104c-0.012-0.488-0.214-0.854-0.676-1.258c-2.361-2.059-5.149-4.5-7.926-7.007   c-1.175-1.063-2.514-1.89-4.095-2.516c-3.497-1.409-6.796-1.73-10.089-0.999c-1.627,0.358-3.147,0.964-4.595,1.831   c-0.79,0.474-0.474,1.703,0.447,1.715c1.769,0.025,3.375,0.334,4.902,0.93c3.546,1.389,5.746,4.388,5.881,8.017   c0.06,1.67-0.286,3.329-1.027,4.927c1.046,0.89,2.11,1.804,3.156,2.703c0.895,0.761,1.765,1.516,2.572,2.209   c0.926-1.007,1.143-1.206,1.324-1.336c1.134-0.782,2.48-0.967,3.618-0.498c0.368,0.154,0.734,0.384,1.08,0.681   c1.566,1.307,1.971,3.141,1.105,4.939c0.362,0.296,0.725,0.592,1.087,0.887c1.45,1.2,2.962,2.436,4.467,3.59   c0.22,0.166,0.401,0.26,0.516,0.251c0.058-0.004,0.237-0.051,0.578-0.359l6.572-7.661l1.726-2.154   C63.683,23.653,63.779,23.281,63.177,22.771z" fill="#3A4652"/>
    <path d="M4.41,18.396c0.029-0.02,0.056-0.045,0.076-0.076c0.005-0.008,0.01-0.015,0.015-0.023   c0.023-0.029,0.041-0.061,0.06-0.092c0.038-0.057,0.075-0.115,0.113-0.172c0.161-0.246,0.322-0.492,0.483-0.737   c0.219-0.334,0.438-0.668,0.656-1.002c0.236-0.36,0.472-0.721,0.708-1.081c0.213-0.325,0.425-0.65,0.638-0.975   c0.149-0.228,0.298-0.456,0.446-0.684c0.088-0.134,0.177-0.271,0.179-0.437c0.002-0.194-0.092-0.385-0.257-0.487   c-0.103-0.063-0.206-0.126-0.308-0.191l-3.187-2.047C2.732,9.556,1.603,8.83,1.478,8.75L0.85,8.348   c-0.182-0.116-0.42,0.013-0.422,0.23l-0.01,0.749C0.415,9.524,0.408,9.71,0.402,9.888c-0.014,0.391-0.027,0.76,0.003,1.141   c0.246,3.105,1.126,5.53,2.615,7.208c0.033,0.038,0.067,0.075,0.102,0.114c0.004,0.004,0.009,0.008,0.013,0.012   c0.006,0.008,0.011,0.017,0.017,0.024c0.312,0.351,0.865,0.366,1.235,0.032C4.396,18.412,4.402,18.403,4.41,18.396z" fill="#3A4652"/>
    <path d="M26.798,26.994c-1.707,1.815-3.988,4.303-6.423,6.971c-2.066-2.731-4.366-5.246-7.339-6.998   c-1.94-1.132-4.096-1.761-6.342-1.895c-1.087-0.054-2.551-0.045-3.153-1.15c-0.431-0.764,0.548-1.572,0.934-2.156   c0.988-1.491,1.958-2.973,2.937-4.455c1.401-2.12,2.812-4.24,4.213-6.36c-0.557-0.395-2.479-1.626-3.081-2.021   C6.991,7.933,5.383,6.882,4.027,5.633L3.964,5.57C3.757,5.337,3.694,5.004,3.802,4.717c0.18-0.467,0.647-0.71,2.012-1.06   c0.719-0.189,1.482-0.341,1.662-0.368c1.464-0.171,2.874-0.198,4.204-0.054c2.183,0.242,5.246,1.033,7.465,3.53l0.09,0.117   c1.24,1.437,2.102,3.207,2.443,5.084c0.332,1.788-0.305,3.575-0.126,5.381c0.144,1.482,0.611,2.892,1.32,4.195   c1.069,1.976,2.578,3.629,4.105,5.264L26.798,26.994z" fill="#3A4652"/>
    <path d="M49.623,55.352c-0.602,3.431-3.404,5.641-6.971,5.479c-2.129-0.099-3.952-1.06-5.129-2.713   c-1.015-1.419-2.021-2.839-3.036-4.267c-1.814-2.56-3.629-5.111-5.444-7.671c2.605-3.324,5.192-6.629,7.15-9.189   c3.925,4.312,7.86,8.614,11.848,12.872C49.425,51.346,49.991,53.295,49.623,55.352z" fill="#3A4652"/>
  </g>
</svg>