<svg xmlns="http://www.w3.org/2000/svg" xmlns:xlink="http://www.w3.org/1999/xlink" enable-background="new 0 0 64 64" height="64PX" id="Layer_1" version="1.1" viewBox="0 0 64 64" width="64px" xml:space="preserve">
  <g>
    <path d="M44.051,43.478c-0.222,2.235-0.498,4.5-0.77,6.691c-0.119,0.92-0.228,1.846-0.338,2.776   c-0.448,3.721-1.706,6.416-3.849,8.253c-0.789,0.673-1.715,1.242-2.77,1.684c-4.225,1.756-8.393,1.042-12.055-2.062   c-5.599-4.754-6.447-11.905-2.059-17.375c0.46-0.579,1.027-1.152,1.793-1.806c0.494-0.422,1.011-0.832,1.521-1.233   c0.51-0.401,1.048-0.826,1.559-1.264l0.11-0.094c0.028-0.025,0.097-0.066,0.166-0.106c0.094-0.047,0.2-0.103,0.297-0.188   c1.12-0.804,1.731-1.821,1.753-2.895c0.015-0.737-0.863-1.764-0.442-2.462c0.382,0.102,0.673,0.387,1.03,0.541   c0.894,0.386,1.939,0.565,2.924,0.435c0.619-0.082,1.213-0.29,1.709-0.673c0.146-0.113,0.3-0.228,0.481-0.266   c0.772-0.164,0.479,1.051,0.544,1.462c0.203,1.277-0.188,2.394-1.289,3.593c-0.241,0.257-0.473,0.523-0.714,0.779   c-2.056,2.219-4.194,4.525-5.348,7.539c-0.704,1.865-1.264,4.062,0,6.256c1.108,1.912,2.876,2.804,4.982,2.538   c2.197-0.279,3.856-1.627,4.741-3.903c0.25-0.642,0.504-1.283,0.748-1.934c0.657-1.702,1.327-3.471,2.1-5.136   c0.31-0.673,0.851-1.377,1.54-1.965c0.091-0.075,0.197-0.15,0.294-0.235c0.235-0.182,0.901-0.222,1.158-0.119   C43.983,42.48,44.095,43.031,44.051,43.478z" fill="#3A4652"/>
    <path class="tow-main" d="M50.231,12.95c-0.203-0.726-0.529-1.415-0.926-2.056c-0.269-0.432-0.466-0.717-0.779-0.864   c-0.181-0.088-0.401-0.128-0.692-0.128H16.879c-0.491,0-1.233-0.138-1.615,0.175c-0.153,0.128-0.275,0.363-0.388,0.526   c-0.391,0.585-0.723,1.214-0.961,1.875c-0.689,1.912-0.397,3.912,0.945,5.464c0.172,0.2,0.357,0.388,0.551,0.566   c0.451,0.457,0.901,0.911,1.352,1.368C17.84,20.968,18.92,22.061,20,23.15c1.296,1.311,2.591,2.623,3.887,3.934   c1.105,1.117,2.209,2.235,3.314,3.352c0.776,0.786,1.518,1.712,2.566,2.166c1.217,0.526,2.607,0.595,3.878,0.238   c1.44-0.407,2.407-1.652,3.433-2.688c1.183-1.199,2.369-2.397,3.552-3.596c1.33-1.346,2.66-2.688,3.99-4.034   c1.023-1.039,2.05-2.075,3.073-3.111c0.297-0.3,0.595-0.601,0.892-0.901C50.162,17.047,50.82,15.032,50.231,12.95z M23.373,22.439   l-3.959-4.003l5.668-5.668h7.962L23.373,22.439z M30.984,30.166c-0.122-0.125-0.244-0.253-0.372-0.388   c-0.153-0.16-0.304-0.319-0.454-0.473l-3.12-3.158l13.379-13.379h7.962L30.984,30.166z" fill="#3079BE"/>
    <path d="M19.416,8.316c-0.778,0-1.408-0.63-1.408-1.408v-5.32c0-0.778,0.63-1.408,1.408-1.408   s1.408,0.63,1.408,1.408v5.32C20.824,7.685,20.193,8.316,19.416,8.316z" fill="#3A4652"/>
    <path d="M44.061,8.316c-0.778,0-1.408-0.63-1.408-1.408v-5.32c0-0.778,0.63-1.408,1.408-1.408   c0.778,0,1.408,0.63,1.408,1.408v5.32C45.469,7.685,44.839,8.316,44.061,8.316z" fill="#3A4652"/>
  </g>
</svg>